<svg width="120" height="60" viewBox="0 0 120 60" xmlns="http://www.w3.org/2000/svg">
  <!-- Background border with semi-circle and rectangle -->
  <path d="M10 10 L110 10 L110 50 L10 50 A20 20 0 0 1 10 30 Z" 
        fill="none" 
        stroke="#ffffff" 
        stroke-width="3"/>
  
  <!-- Racing helmet (left side) -->
  <g transform="translate(15, 15)">
    <!-- Helmet outline -->
    <ellipse cx="20" cy="15" rx="18" ry="12" 
             fill="none" 
             stroke="#ffffff" 
             stroke-width="2"/>
    
    <!-- Helmet visor area -->
    <rect x="8" y="12" width="24" height="6" 
          fill="#000000" 
          stroke="#ffffff" 
          stroke-width="1"/>
    
    <!-- Visor lines -->
    <line x1="8" y1="12" x2="32" y2="12" stroke="#ffffff" stroke-width="1"/>
    <line x1="8" y1="18" x2="32" y2="18" stroke="#ffffff" stroke-width="1"/>
    
    <!-- Helmet highlights -->
    <ellipse cx="15" cy="8" rx="3" ry="2" fill="#cccccc" opacity="0.6"/>
    <ellipse cx="25" cy="8" rx="3" ry="2" fill="#cccccc" opacity="0.6"/>
  </g>
  
  <!-- Separator line -->
  <line x1="60" y1="20" x2="60" y2="40" stroke="#000000" stroke-width="2"/>
  
  <!-- FM Letters (right side) -->
  <g transform="translate(70, 15)">
    <!-- Letter F -->
    <path d="M5 5 L5 35 L8 35 L8 20 L18 20 L18 17 L8 17 L8 8 L20 8 L20 5 Z" 
          fill="#ffffff"/>
    
    <!-- Letter M -->
    <path d="M25 5 L25 35 L28 35 L28 20 L33 30 L38 20 L38 35 L41 35 L41 5 L37 5 L32 18 L27 5 Z" 
          fill="#ffffff"/>
  </g>
</svg>
